<svg xmlns="http://www.w3.org/2000/svg" xmlns:xlink="http://www.w3.org/1999/xlink" width="35" height="35" viewBox="0 0 35 35"><defs><style>.a{fill:url(#a);}.b{fill:#fff;}</style><linearGradient id="a" x1="0.028" x2="1" y2="0.922" gradientUnits="objectBoundingBox"><stop offset="0" stop-color="#ffa902"/><stop offset="1" stop-color="#e0292b"/></linearGradient></defs><g transform="translate(-324 -624)"><circle class="a" cx="17.5" cy="17.5" r="17.5" transform="translate(324 624)"/><g transform="translate(272 571.976)"><path class="b" d="M13.385,19.71,19.1,21.92l2.21,5.718a.573.573,0,0,0,.568.385h0a.611.611,0,0,0,.568-.385L27.96,13.85a.594.594,0,0,0-.142-.649.633.633,0,0,0-.649-.142L13.385,18.575a.611.611,0,0,0-.385.568A.6.6,0,0,0,13.385,19.71ZM26.3,14.722,21.9,25.753l-1.541-3.995,2.23-2.23a.6.6,0,0,0-.851-.852l-2.149,2.109L15.27,19.122Z" transform="translate(49 49)"/></g></g></svg>